<?xml version="1.0" standalone="no"?>
<!DOCTYPE svg PUBLIC "-//W3C//DTD SVG 20010904//EN"
 "http://www.w3.org/TR/2001/REC-SVG-20010904/DTD/svg10.dtd">
<svg version="1.0" xmlns="http://www.w3.org/2000/svg"
 width="48.000000pt" height="48.000000pt" viewBox="0 0 48.000000 48.000000"
 preserveAspectRatio="xMidYMid meet">

<g transform="translate(0.000000,48.000000) scale(0.100000,-0.100000)"
fill="#000000" stroke="none">
<path d="M2 223 l3 -218 60 0 60 0 3 218 2 217 -65 0 -65 0 2 -217z m86 -121
c4 -30 -26 -42 -44 -17 -10 14 -11 22 -2 32 16 20 42 12 46 -15z"/>
<path d="M170 425 c0 -12 24 -15 133 -17 l132 -3 3 -117 3 -118 -136 0 -135 0
0 -40 c0 -28 4 -40 14 -40 8 0 16 -7 20 -15 4 -11 20 -15 56 -15 38 0 50 4 50
15 0 12 14 15 63 15 105 0 107 4 107 175 0 117 -3 146 -16 159 -22 23 -294 24
-294 1z"/>
<path d="M177 34 c-4 -4 -7 -13 -7 -21 0 -10 22 -13 91 -13 81 0 90 2 87 17
-3 15 -16 18 -84 21 -44 1 -83 0 -87 -4z"/>
</g>
</svg>
