<?xml version="1.0" standalone="no"?>
<!DOCTYPE svg PUBLIC "-//W3C//DTD SVG 20010904//EN"
 "http://www.w3.org/TR/2001/REC-SVG-20010904/DTD/svg10.dtd">
<svg version="1.0" xmlns="http://www.w3.org/2000/svg"
 width="512.000000pt" height="512.000000pt" viewBox="0 0 512.000000 512.000000"
 preserveAspectRatio="xMidYMid meet">

<g transform="translate(0.000000,512.000000) scale(0.100000,-0.100000)"
fill="#000000" stroke="none">
<path d="M435 5105 c-203 -56 -366 -221 -420 -425 -22 -83 -22 -4157 0 -4240
55 -207 218 -370 425 -425 83 -22 4157 -22 4240 0 207 55 370 218 425 425 22
83 22 4157 0 4240 -55 207 -218 370 -425 425 -79 21 -4168 21 -4245 0z m2275
-1618 l0 -143 -132 -11 c-250 -22 -416 -91 -553 -228 -64 -63 -90 -98 -122
-165 -40 -82 -80 -207 -69 -217 3 -3 29 16 59 43 180 165 461 200 696 89 97
-46 212 -160 258 -255 77 -159 98 -365 54 -533 -51 -194 -192 -372 -361 -454
-47 -23 -114 -50 -150 -59 -89 -24 -280 -24 -375 0 -389 98 -609 478 -565 977
47 541 337 915 815 1049 98 27 245 48 358 49 l87 1 0 -143z m1670 -497 l0
-620 130 0 130 0 0 -140 0 -140 -130 0 -130 0 0 -260 0 -260 -180 0 -180 0 0
260 0 260 -465 0 -465 0 0 120 0 120 317 483 c174 265 363 553 420 640 l103
157 225 0 225 0 0 -620z m-3576 -707 c47 -76 89 -144 94 -152 6 -11 17 0 42
45 18 32 58 101 88 152 l54 92 110 0 c85 0 108 -3 102 -12 -4 -7 -68 -99 -141
-205 l-134 -192 39 -58 c21 -32 87 -131 145 -220 l106 -163 -117 0 -117 0 -71
123 c-40 67 -80 137 -90 155 -10 17 -22 32 -26 32 -4 0 -15 -15 -24 -32 -9
-18 -48 -88 -86 -155 l-70 -123 -109 0 c-60 0 -109 3 -109 6 0 3 63 98 140
212 78 114 139 214 137 222 -2 8 -65 104 -140 213 l-136 197 114 0 114 0 85
-137z"/>
<path d="M2104 2640 c-106 -22 -215 -108 -260 -203 -19 -41 -24 -69 -24 -129
0 -216 89 -392 235 -464 51 -24 70 -28 144 -28 139 0 230 56 289 176 37 78 52
147 52 246 0 241 -122 390 -332 406 -35 3 -82 1 -104 -4z"/>
<path d="M3929 3133 c-51 -99 -156 -270 -280 -455 -110 -163 -199 -299 -199
-302 0 -4 128 -6 285 -6 l285 0 0 348 c0 191 3 398 7 460 4 77 3 112 -5 112
-6 0 -47 -71 -93 -157z"/>
</g>
</svg>
