<?xml version="1.0" standalone="no"?>
<!DOCTYPE svg PUBLIC "-//W3C//DTD SVG 20010904//EN"
 "http://www.w3.org/TR/2001/REC-SVG-20010904/DTD/svg10.dtd">
<svg version="1.0" xmlns="http://www.w3.org/2000/svg"
 width="512.000000pt" height="512.000000pt" viewBox="0 0 512.000000 512.000000"
 preserveAspectRatio="xMidYMid meet">

<g transform="translate(0.000000,512.000000) scale(0.100000,-0.100000)"
fill="#000000" stroke="none">
<path d="M1880 5079 c-744 -43 -1393 -266 -1682 -578 -131 -141 -185 -287
-160 -433 54 -316 441 -595 1047 -753 569 -149 1280 -172 1892 -60 773 142
1285 468 1320 841 55 592 -1093 1058 -2417 983z"/>
<path d="M33 3470 c2 -406 3 -416 25 -471 76 -189 242 -343 520 -482 291 -145
649 -241 1097 -294 200 -23 765 -24 963 -1 l132 15 106 103 c143 137 200 165
334 165 76 -1 105 -5 144 -23 27 -12 50 -22 52 -22 2 0 17 28 32 63 36 79 104
147 190 189 l66 33 208 5 207 5 54 62 c61 71 109 163 126 241 7 35 11 187 10
440 -1 240 -4 368 -10 338 -55 -330 -423 -602 -1039 -769 -657 -178 -1549
-175 -2200 8 -384 108 -661 253 -838 439 -88 93 -137 180 -162 288 l-19 83 2
-415z"/>
<path d="M31 2513 c-1 -241 3 -402 10 -435 81 -390 698 -721 1544 -828 197
-24 556 -42 686 -33 l97 6 4 102 c3 90 7 108 36 168 51 104 131 172 244 210
15 5 14 12 -9 67 -13 34 -27 92 -30 131 l-6 69 -71 -8 c-119 -12 -680 -8 -811
6 -549 60 -971 183 -1280 374 -228 142 -355 294 -396 478 l-17 75 -1 -382z"/>
<path d="M3756 2195 l-29 -174 -51 -17 c-28 -9 -77 -30 -108 -45 -32 -16 -62
-29 -68 -29 -5 0 -73 46 -151 101 l-141 102 -104 -104 c-57 -57 -104 -109
-104 -115 0 -6 43 -73 96 -148 l96 -138 -30 -66 c-16 -37 -37 -90 -46 -117
l-16 -51 -175 -28 -175 -29 0 -153 c0 -85 4 -154 8 -154 4 0 82 -13 172 -30
90 -16 165 -30 166 -30 1 0 10 -24 20 -52 9 -29 30 -79 46 -112 16 -32 27 -65
24 -72 -3 -8 -49 -76 -102 -150 l-97 -136 104 -104 c57 -57 108 -104 114 -104
5 1 73 45 150 99 l140 99 50 -26 c28 -14 79 -35 115 -47 l65 -22 29 -171 29
-172 153 0 152 0 6 27 c3 16 17 93 31 173 15 79 27 145 28 146 1 1 27 9 57 19
30 10 81 31 113 47 l57 28 133 -93 c72 -51 138 -97 146 -102 9 -5 45 24 117
96 57 57 104 108 104 113 0 5 -45 71 -100 148 l-100 138 29 58 c16 32 37 84
46 115 9 31 17 57 18 57 1 0 79 14 172 30 94 16 171 30 173 30 1 0 2 69 2 154
l0 153 -174 29 -174 28 -17 55 c-10 31 -31 82 -47 114 l-29 58 101 144 c55 79
100 147 100 152 0 5 -47 55 -104 112 l-105 104 -141 -101 c-78 -56 -146 -102
-151 -102 -5 0 -31 11 -57 24 -26 13 -72 31 -102 41 -30 10 -59 21 -63 25 -6
6 -67 315 -67 343 0 4 -69 7 -153 7 l-153 0 -28 -175z m266 -620 c123 -26 227
-109 282 -225 29 -60 31 -73 31 -170 0 -98 -2 -110 -32 -170 -41 -83 -110
-152 -193 -193 -60 -30 -72 -32 -170 -32 -97 0 -110 2 -170 31 -205 97 -291
333 -196 539 49 109 175 205 294 225 69 11 80 11 154 -5z"/>
<path d="M31 1534 c0 -217 3 -405 9 -435 22 -117 106 -246 230 -354 93 -81
166 -127 325 -205 380 -187 862 -290 1438 -307 218 -6 627 11 627 27 0 4 -10
29 -22 56 -32 71 -32 208 1 281 26 58 23 68 -16 78 -44 10 -121 64 -158 109
-38 46 -85 140 -85 170 0 18 -6 19 -102 13 -221 -13 -643 18 -915 69 -749 138
-1245 443 -1317 809 -13 65 -14 41 -15 -311z"/>
</g>
</svg>
